<?xml version="1.0" encoding="utf-8"?>
<!-- Generator: Adobe Illustrator 23.0.1, SVG Export Plug-In . SVG Version: 6.00 Build 0)  -->
<svg version="1.1" id="layer" xmlns="http://www.w3.org/2000/svg" xmlns:xlink="http://www.w3.org/1999/xlink" x="0px" y="0px"
	 viewBox="0 0 600 126" style="enable-background:new 0 0 600 126;" xml:space="preserve">
<style type="text/css">
	.st0{fill:#EB0029;}
	.st1{fill:#717271;}
</style>
<g>
	<polygon class="st0" points="88.4,0 88.4,126 125.4,126 125.4,28 	"/>
	<polygon class="st0" points="73.6,11.1 73.6,126 81.2,126 81.2,5.4 	"/>
	<polygon class="st0" points="58.9,22.3 58.9,126 66.5,126 66.5,16.5 	"/>
	<polygon class="st0" points="44.2,33.4 44.2,126 51.8,126 51.8,27.7 	"/>
	<polygon class="st0" points="132.5,126 169.6,126 169.6,84.5 132.5,56.4 	"/>
	<polygon class="st0" points="29.5,67.5 29.5,126 37,126 37,61.7 	"/>
	<polygon class="st0" points="14.7,78.6 14.7,126 22.3,126 22.3,72.9 	"/>
	<polygon class="st0" points="0,89.8 0,126 7.6,126 7.6,84 	"/>
	<g>
		<path class="st1" d="M265.2,70.2c-11.1,0-17.9-6.2-17.9-18.4V28h9.1v23.5c0,6.8,3.4,10.2,8.9,10.2c5.6,0,8.9-3.4,8.9-10V27.9h9.1
			v23.4C283.4,64,276.3,70.2,265.2,70.2"/>
		<path class="st1" d="M310.8,70.1c-6.3,0-12.6-2.2-17.6-6.6l5.4-6.5c3.7,3.1,7.6,5,12.4,5c3.7,0,6-1.5,6-3.9v-0.1
			c0-2.3-1.4-3.5-8.4-5.3c-8.4-2.1-13.7-4.6-13.7-12.8v-0.1c0-7.5,6-12.5,14.5-12.5c6,0,11.2,1.9,15.4,5.3l-4.7,6.9
			c-3.7-2.5-7.3-4.1-10.8-4.1s-5.3,1.6-5.3,3.6V39c0,2.7,1.8,3.8,8.9,5.6c8.4,2.2,13.2,5.2,13.2,12.4v0.1
			C326,65.5,319.8,70.1,310.8,70.1"/>
		<polygon class="st1" points="364.4,69.5 364.4,52.8 347.5,52.8 347.5,69.5 338.4,69.5 338.4,28 347.5,28 347.5,44.4 364.4,44.4 
			364.4,28 373.5,28 373.5,69.5 		"/>
		<polygon class="st1" points="522.6,69.5 503.1,43.5 503.1,69.5 494.1,69.5 494.1,28 502.5,28 521.9,54.3 521.9,28 530.9,28 
			530.9,69.5 		"/>
		<polygon class="st1" points="344.2,126 331.4,108.3 326.6,113.3 326.6,126 317.4,126 317.4,84.5 326.6,84.5 326.6,102.6 
			343.4,84.5 354.4,84.5 337.5,102.1 355.2,126 		"/>
		<polygon class="st1" points="365.4,126 365.4,84.5 396.4,84.5 396.4,92.6 374.5,92.6 374.5,101 393.7,101 393.7,109.1 
			374.5,109.1 374.5,117.9 396.7,117.9 396.7,126 		"/>
		<rect x="453.6" y="84.5" class="st1" width="9.1" height="41.5"/>
		<polygon class="st1" points="476.1,125.9 476.1,84.4 507.1,84.4 507.1,92.6 485.2,92.6 485.2,101 504.5,101 504.5,109.1 
			485.2,109.1 485.2,117.8 507.4,117.8 507.4,125.9 		"/>
		<polygon class="st1" points="521.1,126 521.1,84.5 530.2,84.5 530.2,117.7 550.9,117.7 550.9,126 		"/>
		<path class="st1" d="M578,126h-16.2V84.5H578c13,0,22,8.9,22,20.6v0.1C600,116.9,591,126,578,126 M590.5,105.2
			c0-7.3-5-12.5-12.5-12.5h-7.1v25h7.1c7.5,0,12.5-5,12.5-12.4V105.2z"/>
		<path class="st1" d="M220.1,61.7c-7.6,0.1-12.7-5.7-12.8-12.8v-0.1c-0.1-7.1,4.9-13,12.2-13.1c4.1-0.1,7.8,1.7,10.2,4.6l5.8-6.9
			c-4-3.9-9.6-6.2-16-6.1c-12.8,0.2-21.9,10-21.7,21.8v0.1c0.2,11.8,9.6,21.2,22.3,20.9c6.7-0.1,12.4-3.2,16.3-7.6l-6.1-6
			C228,59.6,224.4,61.6,220.1,61.7"/>
		<polygon class="st1" points="419.9,28 429.6,28 429.6,69.5 420.9,69.5 420.9,42.3 409.2,60.1 408.9,60.1 397.1,42.3 397.1,69.5 
			388.5,69.5 388.5,28 398.2,28 409,45.4 		"/>
		<path class="st1" d="M457.5,28l-17.6,41.4h9.3l3.8-9.3h17.5l3.8,9.3h9.5l-17.6-41.5h-8.7V28z M456.2,52.1l5.5-13.4l5.5,13.4H456.2
			z"/>
		<path class="st1" d="M280.9,84.5L263.3,126h9.3l3.8-9.3h17.5l3.8,9.3h9.5l-17.6-41.5H280.9z M279.6,108.6l5.5-13.4l5.5,13.4H279.6
			z"/>
		<polygon class="st1" points="418.7,92.8 418.7,101.6 438.2,101.6 438.2,109.9 418.7,109.9 418.7,126 409.5,126 409.5,84.5 
			441.1,84.5 441.1,92.8 		"/>
		<polygon class="st1" points="253.5,84.5 243.9,113.4 234.2,84.5 225.4,84.5 215.8,113.4 206.2,84.5 196.5,84.5 211.4,126 
			220.5,126 229.8,97.5 239.2,126 248.3,126 263.2,84.5 		"/>
		<path class="st1" d="M589.1,59.2l4.8-5.3l-5.8-6.2l-4.2,5l-5.2-6.1c3.4-2,5.6-5.7,5.4-9.5c-0.2-5.6-4.8-9.8-10.7-9.8
			c-2.8,0-5.4,1.1-7.3,3.1c-1.9,2-2.9,4.6-2.8,7.4c0.1,3.1,2.2,5.8,3.7,7.6c-4.9,2-8.5,7.2-8.3,12.2c0.2,7.1,6.4,12.9,13.7,12.9
			c4.1,0,8.6-2.2,11.4-5.3l3.7,4.5h10.7L589.1,59.2z M578.9,58.8c-1.9,2.5-4.3,3.9-6.4,3.9c-3,0-5.6-2.5-5.7-5.5
			c-0.1-1.8,1.3-4.6,5.5-6.5L578.9,58.8z M573.8,41.6c-1.1-1-2.4-2.4-2.6-3.9c-0.2-1.5,0.7-3.2,2.7-3.3c2.1-0.1,3.2,1.4,3.2,3.1
			C577,39.4,575.1,40.9,573.8,41.6"/>
	</g>
</g>
</svg>
