<?xml version="1.0" encoding="utf-8"?>
<!-- Generator: Adobe Illustrator 19.0.0, SVG Export Plug-In . SVG Version: 6.00 Build 0)  -->
<svg version="1.1" id="Layer_2" xmlns="http://www.w3.org/2000/svg" xmlns:xlink="http://www.w3.org/1999/xlink" x="0px" y="0px"
	 viewBox="164 -42.6 388.8 105.3" style="enable-background:new 164 -42.6 388.8 105.3;" xml:space="preserve">
<metadata><?xpacket begin="﻿" id="W5M0MpCehiHzreSzNTczkc9d"?>
<x:xmpmeta xmlns:x="adobe:ns:meta/" x:xmptk="Adobe XMP Core 5.6-c067 79.157747, 2015/03/30-23:40:42        ">
   <rdf:RDF xmlns:rdf="http://www.w3.org/1999/02/22-rdf-syntax-ns#">
      <rdf:Description rdf:about=""/>
   </rdf:RDF>
</x:xmpmeta>
                                                                                                    
                                                                                                    
                                                                                                    
                                                                                                    
                                                                                                    
                                                                                                    
                                                                                                    
                                                                                                    
                                                                                                    
                                                                                                    
                                                                                                    
                                                                                                    
                                                                                                    
                                                                                                    
                                                                                                    
                                                                                                    
                                                                                                    
                                                                                                    
                                                                                                    
                                                                                                    
                           
<?xpacket end="w"?></metadata>
<style type="text/css">
	.st0{fill:#D6006E;}
	.st1{fill:#AD0060;}
	.st2{fill:#8B0C57;}
	.st3{fill:#052438;}
</style>
<g>
	<path class="st0" d="M220.6,23c-0.1,0-0.2,0-0.2,0.1c0,0-27.6,25.2-27.7,25.2c-0.1,0-0.1,0.1-0.2,0.1c-0.1,0-0.2,0-0.2-0.1
		c0,0-27.7-25.2-27.7-25.2c-0.1-0.1-0.1-0.1-0.2-0.1c-0.2,0-0.3,0.2-0.3,0.3v13.4c0,0.1,0,0.2,0.1,0.2l28.1,25.7
		c0.1,0.1,0.1,0.1,0.2,0.1c0.1,0,0.2,0,0.2-0.1L220.8,37c0.1-0.1,0.1-0.2,0.1-0.2V23.3C221,23.1,220.8,23,220.6,23z"/>
	<path class="st1" d="M220.6,3.1c-0.1,0-0.2,0-0.2,0.1c0,0-27.6,25.2-27.7,25.2c-0.1,0-0.1,0.1-0.2,0.1c-0.1,0-0.2,0-0.2-0.1
		c0,0-27.7-25.2-27.7-25.2c-0.1-0.1-0.1-0.1-0.2-0.1c-0.2,0-0.3,0.2-0.3,0.3v13.4c0,0.1,0,0.2,0.1,0.2l28.1,25.7
		c0.1,0.1,0.1,0.1,0.2,0.1c0.1,0,0.2,0,0.2-0.1l28.1-25.7c0.1-0.1,0.1-0.2,0.1-0.2V3.5C221,3.3,220.8,3.1,220.6,3.1z"/>
	<path class="st2" d="M220.6-16.7c-0.1,0-0.2,0-0.2,0.1c0,0-27.6,25.2-27.7,25.2c-0.1,0-0.1,0.1-0.2,0.1c-0.1,0-0.2,0-0.2-0.1
		c0,0-27.7-25.2-27.7-25.2c-0.1-0.1-0.1-0.1-0.2-0.1c-0.2,0-0.3,0.2-0.3,0.3V-3c0,0.1,0,0.2,0.1,0.2l28.1,25.7
		c0.1,0.1,0.1,0.1,0.2,0.1c0.1,0,0.2,0,0.2-0.1l28.1-25.7c0.1-0.1,0.1-0.2,0.1-0.2v-13.4C221-16.6,220.8-16.7,220.6-16.7z
		 M192.1-42.6c-0.1,0-0.2,0-0.2,0.1l-24.6,22.4c-0.1,0.1-0.1,0.1-0.1,0.2s0,0.2,0.1,0.2l7.4,6.7c0.1,0.1,0.1,0.1,0.2,0.1
		c0.1,0,0.2,0,0.2-0.1l0,0l17.2-15.7l0,0c0.1-0.1,0.1-0.2,0.1-0.2v-13.4C192.5-42.5,192.3-42.6,192.1-42.6z"/>
</g>
<path class="st3" d="M302.5,15.7c0,1.6,0.2,3.2,0.7,4.9c0.5,1.6,1.2,3.1,2.2,4.4c1,1.3,2.3,2.3,3.8,3.1c1.5,0.8,3.3,1.2,5.5,1.2
	s3.9-0.4,5.5-1.2c1.5-0.8,2.8-1.9,3.8-3.1c1-1.3,1.7-2.7,2.2-4.4c0.5-1.6,0.7-3.2,0.7-4.9c0-1.6-0.2-3.2-0.7-4.8
	c-0.5-1.6-1.2-3-2.2-4.3c-1-1.3-2.3-2.3-3.8-3.1c-1.5-0.8-3.3-1.2-5.5-1.2s-3.9,0.4-5.5,1.2c-1.5,0.8-2.8,1.8-3.8,3.1
	c-1,1.3-1.7,2.7-2.2,4.3C302.7,12.4,302.5,14,302.5,15.7 M292.2,15.7c0-3.3,0.6-6.2,1.8-8.9c1.2-2.7,2.8-5,4.8-6.9
	c2-1.9,4.4-3.4,7.1-4.4c2.8-1,5.7-1.5,8.8-1.5c3.1,0,6,0.5,8.8,1.5c2.8,1,5.1,2.5,7.1,4.4c2,1.9,3.6,4.2,4.8,6.9
	c1.2,2.7,1.8,5.6,1.8,8.9s-0.6,6.3-1.8,9s-2.8,5-4.8,6.9c-2,1.9-4.4,3.4-7.1,4.5c-2.8,1.1-5.7,1.6-8.8,1.6c-3.1,0-6-0.5-8.8-1.6
	c-2.8-1.1-5.1-2.6-7.1-4.5c-2-1.9-3.6-4.2-4.8-6.9C292.8,21.9,292.2,18.9,292.2,15.7 M420.2-23.5c3.4,0,6.1,2.7,6.1,6.1
	s-2.7,6.1-6.1,6.1c-3.4,0-6.1-2.7-6.1-6.1S416.8-23.5,420.2-23.5z M415.1-4.9h10.2v41.4h-10.2V-4.9z M470.3,4.3
	c-0.6-2-1.5-3.8-2.7-5.3s-2.8-2.8-4.7-3.7c-1.9-0.9-4.2-1.4-6.9-1.4c-3.1,0-5.7,0.8-8,2.3c-2.2,1.6-4,3.4-4.9,5.4v-6.6h-9.7v41.4
	h10.2V14.6c0-1.5,0.2-3,0.6-4.4c0.4-1.5,1-2.8,1.8-3.9c0.8-1.1,1.8-2,3-2.8c1.2-0.7,2.6-1.1,4.3-1.1v0c1.6,0,2.9,0.3,3.9,1
	c1,0.7,1.8,1.5,2.3,2.6c0.6,1.1,0.9,2.2,1.1,3.5c0.2,1.3,0.3,2.6,0.3,3.8v23.2h10.2v-26C471.2,8.4,470.9,6.3,470.3,4.3z M405.8,4.3
	c-0.6-2-1.5-3.8-2.7-5.3s-2.8-2.8-4.7-3.7c-1.9-0.9-4.2-1.4-6.9-1.4c-3.1,0-5.7,0.7-8,2c-2.3,1.3-4.1,3.3-5.5,5.8
	c-1.1-2.3-2.8-4.2-4.9-5.6s-4.7-2.1-7.9-2.1c-1.7,0-3.2,0.2-4.5,0.6c-1.4,0.4-2.6,1-3.6,1.7c-1.1,0.7-2,1.6-2.7,2.5
	c-0.8,0.9-1.5,1.9-2,2.9v-6.6h-9.7v41.4H353V14.2c0-1.3,0.2-2.6,0.6-3.9c0.4-1.5,1-2.8,1.7-3.9c0.7-1.1,1.7-2,2.9-2.8
	c1.2-0.7,2.5-1.1,4.1-1.1v0c2.4,0.1,4.3,0.9,5.4,2.5c1.2,1.7,1.8,3.8,1.8,6.3v25.2h10.2V14.6l0,0c0-1.5,0.2-3,0.6-4.4
	c0.4-1.5,1-2.8,1.7-3.9c0.7-1.1,1.7-2,2.9-2.8c1.2-0.7,2.5-1.1,4.1-1.1l0,0c1.5,0,2.8,0.4,3.7,1c1,0.7,1.8,1.5,2.3,2.6
	c0.6,1.1,0.9,2.2,1.1,3.5c0.2,1.3,0.3,2.6,0.3,3.8v23.2h10.2v-26C406.7,8.4,406.4,6.3,405.8,4.3z M269.6,28.4
	c-8,0-12.5-5.1-14.9-10.3c-0.2-0.4-1.5-4.3-1.5-8c-0.1-3.7,1.3-7.6,1.5-8c2.4-5.2,6.9-10.3,14.9-10.3c8,0,12.9,5.8,12.9,5.8l7.7-7
	l-0.4-0.4c-2.5-2.4-5.5-4.3-8.9-5.7c-3.4-1.4-7.1-2-11-2c-3.9,0-7.5,0.7-11,2c-3.4,1.4-6.4,3.3-8.9,5.7c-2.5,2.4-4.5,5.3-6,8.7
	c-1.5,3.4-2.2,7.1-2.2,11.2s0.7,7.8,2.2,11.2c1.5,3.4,3.5,6.3,6,8.7s5.5,4.3,8.9,5.7c3.4,1.4,7.1,2,11,2c3.8,0,7.5-0.7,11-2
	c3.4-1.4,6.4-3.3,8.9-5.7l0.4-0.4l-7.7-7C282.6,22.6,277.7,28.4,269.6,28.4z M552.8,4.5V-5.8c-0.3-0.1-0.7-0.2-1.2-0.2
	c-0.5,0-0.9,0-1.3,0c-2.7,0-5.1,0.7-7.2,2.2c-2,1.5-3.8,3.4-4.9,5.8v-6.8h-9.8v41.4h10.2V14.8l0,0c0-1.5,0.3-3,0.8-4.2
	c0.6-1.3,1.3-2.3,2.3-3.2s2.1-1.6,3.4-2.1s2.7-0.7,4.2-0.7L552.8,4.5z M499.2,29.2c-2.1,0-3.9-0.4-5.5-1.2c-1.5-0.8-2.8-1.9-3.8-3.1
	c-1-1.3-1.7-2.7-2.2-4.4c-0.5-1.6-0.7-3.2-0.7-4.9c0-1.6,0.2-3.2,0.7-4.8c0.5-1.6,1.2-3,2.2-4.3c1-1.3,2.3-2.3,3.8-3.1
	c1.5-0.8,3.3-1.2,5.5-1.2s3.9,0.4,5.5,1.2c1.5,0.8,2.8,1.8,3.8,3.1c1,1.3,1.7,2.7,2.2,4.3c0.5,1.6,0.7,3.2,0.7,4.8
	C511.5,23.2,505.5,29.2,499.2,29.2z M521.7,14.5c-0.1-2.8-0.7-5.4-1.7-7.8c-1.2-2.7-2.8-5-4.8-6.9c-2-1.9-4.4-3.4-7.1-4.4
	c-2.8-1-5.7-1.5-8.8-1.5c-3.1,0-6,0.5-8.8,1.5s-5.1,2.5-7.1,4.4s-3.6,4.2-4.8,6.9c-1.2,2.7-1.8,5.6-1.8,8.9s0.6,6.3,1.8,9
	c1.2,2.7,2.8,5,4.8,6.9c2,1.9,4.4,3.4,7.1,4.5c2.8,1.1,5.7,1.6,8.8,1.6c6.3,0,11.7-3.7,13.2-7.2v6.1h9.2L521.7,14.5L521.7,14.5z"/>
</svg>
