<?xml version="1.0" encoding="UTF-8" standalone="no"?>
<!-- Created with Inkscape (http://www.inkscape.org/) -->

<svg
   xmlns:dc="http://purl.org/dc/elements/1.1/"
   xmlns:cc="http://creativecommons.org/ns#"
   xmlns:rdf="http://www.w3.org/1999/02/22-rdf-syntax-ns#"
   xmlns:svg="http://www.w3.org/2000/svg"
   xmlns="http://www.w3.org/2000/svg"
   xmlns:sodipodi="http://sodipodi.sourceforge.net/DTD/sodipodi-0.dtd"
   xmlns:inkscape="http://www.inkscape.org/namespaces/inkscape"
   width="77.604935mm"
   height="15.875mm"
   viewBox="0 0 77.604935 15.875"
   version="1.1"
   id="svg8"
   inkscape:version="0.92.3 (2405546, 2018-03-11)"
   sodipodi:docname="RioCan-logo.svg">
  <defs
     id="defs2" />
  <sodipodi:namedview
     id="base"
     pagecolor="#ffffff"
     bordercolor="#666666"
     borderopacity="1.0"
     inkscape:pageopacity="0.0"
     inkscape:pageshadow="2"
     inkscape:zoom="3.959798"
     inkscape:cx="147.68338"
     inkscape:cy="37.134695"
     inkscape:document-units="mm"
     inkscape:current-layer="layer1"
     showgrid="false"
     inkscape:window-width="1920"
     inkscape:window-height="1017"
     inkscape:window-x="-8"
     inkscape:window-y="-8"
     inkscape:window-maximized="1" />
  <metadata
     id="metadata5">
    <rdf:RDF>
      <cc:Work
         rdf:about="">
        <dc:format>image/svg+xml</dc:format>
        <dc:type
           rdf:resource="http://purl.org/dc/dcmitype/StillImage" />
        <dc:title></dc:title>
      </cc:Work>
    </rdf:RDF>
  </metadata>
  <g
     inkscape:label="Layer 1"
     inkscape:groupmode="layer"
     id="layer1"
     transform="translate(-45.864198,-51.693452)">
    <g
       id="g924"
       transform="matrix(0.26458333,0,0,0.26458333,45.864198,51.693452)">
      <rect
         id="rect815"
         height="60"
         width="278"
         x="0"
         y="0"
         style="fill:none" />
      <path
         id="path817"
         d="m 17.313,13.456 c 1.29,0 2.369,-0.096 3.229,-0.292 0.862,-0.196 1.543,-0.473 2.044,-0.828 0.506,-0.353 0.863,-0.77 1.081,-1.248 0.216,-0.48 0.322,-1.003 0.322,-1.574 0,-0.567 -0.106,-1.088 -0.322,-1.569 C 23.449,7.466 23.092,7.049 22.586,6.695 22.085,6.339 21.404,6.063 20.542,5.871 19.682,5.677 18.603,5.576 17.313,5.576 H 8 v 7.88 z M 18.714,1 c 1.724,0 3.286,0.148 4.683,0.451 1.4,0.301 2.602,0.779 3.609,1.438 1.001,0.655 1.773,1.508 2.312,2.553 0.54,1.048 0.807,2.335 0.807,3.86 0,2.343 -0.696,4.133 -2.095,5.375 -1.399,1.246 -3.285,2.079 -5.654,2.502 l 7.16,10.115 c 0.251,0.356 0.543,0.57 0.889,0.637 0.338,0.074 0.653,0.11 0.939,0.11 V 29 h -10.07 v -0.958 c 0.325,0 0.604,-0.056 0.837,-0.161 0.233,-0.105 0.35,-0.248 0.35,-0.426 0,-0.178 -0.071,-0.379 -0.215,-0.613 -0.143,-0.229 -0.359,-0.54 -0.646,-0.931 L 15.698,17.608 H 8 v 9.475 c 0,0.318 0.115,0.558 0.35,0.718 0.233,0.16 0.653,0.24 1.266,0.24 V 29 H 0.301 V 28.042 C 1.341,28.042 2,27.721 2,27.084 V 2.916 C 2,2.279 1.341,1.959 0.301,1.959 V 1 h 18.413"
         inkscape:connector-curvature="0" />
      <path
         id="path819"
         d="m 46,28.042 c 0.94,0 1.412,-0.321 1.412,-0.958 V 2.917 C 47.412,2.279 46.94,1.959 46,1.959 V 1 h 9 v 0.959 c -0.942,0 -1.411,0.32 -1.411,0.958 v 24.167 c 0,0.637 0.469,0.958 1.411,0.958 V 29 h -9 v -0.958"
         inkscape:connector-curvature="0" />
      <path
         id="path821"
         d="m 83.644,6.117 c -1.366,0.429 -2.595,1.041 -3.692,1.846 -1.092,0.801 -1.98,1.79 -2.664,2.966 -0.682,1.177 -1.022,2.515 -1.022,4.012 0,1.498 0.341,2.833 1.022,4.009 0.684,1.178 1.572,2.169 2.664,2.971 1.098,0.802 2.326,1.416 3.692,1.845 1.358,0.426 2.723,0.639 4.092,0.639 1.359,0 2.726,-0.213 4.089,-0.639 1.363,-0.429 2.594,-1.043 3.688,-1.845 1.095,-0.801 1.981,-1.792 2.666,-2.971 0.68,-1.176 1.021,-2.512 1.021,-4.009 0,-1.497 -0.342,-2.834 -1.021,-4.012 C 97.494,9.753 96.608,8.764 95.513,7.963 94.418,7.158 93.188,6.546 91.825,6.117 90.462,5.687 89.096,5.475 87.736,5.475 c -1.369,0 -2.734,0.212 -4.092,0.642 M 93.761,1.436 c 2.048,0.589 3.914,1.468 5.601,2.647 1.688,1.177 3.068,2.666 4.147,4.466 1.08,1.803 1.613,3.932 1.613,6.391 0,2.458 -0.533,4.591 -1.613,6.389 -1.079,1.804 -2.46,3.291 -4.147,4.465 -1.687,1.177 -3.553,2.033 -5.601,2.567 -2.043,0.535 -4.055,0.801 -6.025,0.801 -1.977,0 -3.987,-0.267 -6.032,-0.801 -2.044,-0.534 -3.912,-1.39 -5.6,-2.567 -1.688,-1.175 -3.068,-2.662 -4.146,-4.465 -1.075,-1.798 -1.617,-3.932 -1.617,-6.389 0,-2.458 0.542,-4.588 1.617,-6.391 1.077,-1.8 2.457,-3.289 4.146,-4.466 1.688,-1.18 3.556,-2.059 5.6,-2.647 2.045,-0.586 4.056,-0.883 6.032,-0.883 1.971,0 3.982,0.297 6.025,0.883"
         inkscape:connector-curvature="0" />
      <path
         id="path823"
         d="m 186.83,25.061 c -0.107,0 -0.205,-0.009 -0.293,-0.029 -0.09,-0.016 -0.191,-0.024 -0.297,-0.024 -0.217,0 -0.73,0.215 -1.533,0.642 -0.812,0.428 -1.834,0.908 -3.07,1.445 -1.238,0.53 -2.65,0.998 -4.227,1.389 -1.58,0.393 -3.232,0.587 -4.955,0.587 -2.26,0 -4.434,-0.284 -6.512,-0.854 -2.082,-0.571 -3.924,-1.454 -5.521,-2.649 -1.598,-1.194 -2.861,-2.681 -3.795,-4.464 -0.934,-1.782 -1.398,-3.868 -1.398,-6.254 0,-2.354 0.465,-4.429 1.398,-6.231 0.934,-1.8 2.197,-3.308 3.795,-4.518 1.598,-1.211 3.439,-2.122 5.521,-2.729 2.078,-0.605 4.252,-0.911 6.512,-0.911 1.828,0 3.488,0.145 4.98,0.431 1.487,0.284 2.793,0.587 3.899,0.909 1.115,0.319 1.996,0.621 2.642,0.906 0.646,0.287 1.041,0.43 1.186,0.43 0.178,0 0.332,-0.089 0.455,-0.268 0.127,-0.177 0.225,-0.32 0.297,-0.43 l 0.809,0.644 -4.195,6.469 -0.543,-0.374 c 0,-0.107 -0.008,-0.214 -0.022,-0.322 -0.021,-0.106 -0.049,-0.231 -0.084,-0.373 -0.069,-0.39 -0.428,-0.791 -1.073,-1.205 -0.648,-0.407 -1.449,-0.774 -2.4,-1.093 -0.947,-0.322 -1.957,-0.59 -3.012,-0.803 -1.062,-0.216 -2.037,-0.323 -2.937,-0.323 -1.508,0 -2.949,0.212 -4.334,0.642 -1.386,0.427 -2.586,1.053 -3.606,1.872 -1.021,0.819 -1.841,1.826 -2.449,3.024 -0.609,1.191 -0.914,2.558 -0.914,4.086 0,1.535 0.305,2.897 0.914,4.092 0.608,1.195 1.428,2.203 2.449,3.023 1.021,0.816 2.223,1.441 3.606,1.872 1.385,0.426 2.826,0.642 4.334,0.642 1.149,0 2.353,-0.138 3.606,-0.403 1.258,-0.268 2.406,-0.607 3.447,-1.014 1.041,-0.411 1.912,-0.873 2.611,-1.392 0.701,-0.517 1.045,-1.008 1.045,-1.468 0,-0.25 -0.07,-0.465 -0.211,-0.644 l 0.752,-0.427 3.555,5.667 -0.432,0.43"
         inkscape:connector-curvature="0" />
      <path
         id="path825"
         d="m 218.541,18.14 -4.521,-9.898 -5.061,9.898 z m -20.295,9.902 c 0.463,-0.073 0.83,-0.301 1.104,-0.694 0.271,-0.389 0.525,-0.83 0.777,-1.33 l 9.959,-20.707 c 0.254,-0.459 0.479,-0.887 0.672,-1.273 0.199,-0.393 0.301,-0.727 0.301,-1.015 0,-0.354 -0.127,-0.602 -0.379,-0.742 -0.25,-0.146 -0.52,-0.25 -0.807,-0.319 V 1 h 9.1 v 0.961 c -0.254,0.069 -0.502,0.17 -0.754,0.291 -0.25,0.127 -0.377,0.382 -0.377,0.771 0,0.288 0.061,0.571 0.188,0.853 0.125,0.283 0.314,0.657 0.566,1.118 l 11.195,21.662 c 0.184,0.391 0.424,0.676 0.732,0.853 0.301,0.177 0.651,0.354 1.047,0.533 v 0.956 h -9.479 v -0.956 c 0.146,0 0.326,-0.055 0.541,-0.163 0.22,-0.108 0.324,-0.264 0.324,-0.478 0,-0.354 -0.146,-0.815 -0.433,-1.384 l -2.047,-3.938 H 207.34 l -1.936,3.779 c -0.363,0.747 -0.539,1.276 -0.539,1.596 0,0.391 0.338,0.588 1.023,0.588 v 0.956 h -7.646 v -0.956"
         inkscape:connector-curvature="0" />
      <polyline
         id="polyline827"
         points="129.36,28.538 128.512,28.538 128.705,21.764 121.951,22.885 123.114,20.359 116.974,14.822   118.425,14.271 117,9.801 119.812,10.578 121.188,8.411 125.414,12.377 124.722,4.565 126.655,5.528 129.354,0 132.054,5.528   133.987,4.565 133.295,12.377 137,8.411 138.377,10.578 142.029,9.557 141.008,14.271 142.424,14.718 135.594,20.359 136.81,22.885   130.05,21.764 130.244,28.538 129.36,28.538 "
         style="fill:#ed3425" />
      <path
         id="path829"
         d="m 4.664,50.113 c 2.055,0 3.361,-0.652 3.361,-2.471 0,-1.817 -1.307,-2.473 -3.361,-2.473 H 2.292 v 4.941 h 2.372 z m 6.523,7.317 H 9.014 L 6.384,53.28 C 5.572,52.014 5.018,51.699 3.22,51.699 H 2.292 V 57.43 H 0.412 V 43.59 h 4.649 c 2.629,0 4.94,1.244 4.94,4.053 0,2.019 -1.403,3.146 -3.181,3.599 0.532,0.336 0.948,0.812 1.362,1.444 l 3.005,4.744"
         inkscape:connector-curvature="0" />
      <polyline
         id="polyline831"
         points="22.458,55.85 22.458,57.43 13.167,57.43 13.167,43.59 22.26,43.59 22.26,45.171 15.043,45.171 15.043,49.422   21.667,49.422 21.667,51.004 15.043,51.004 15.043,55.85 22.458,55.85 " />
      <path
         id="path833"
         d="m 32.464,52.092 -2.352,-6.15 -2.295,6.15 z m 0.593,1.58 H 27.225 L 25.821,57.43 H 23.843 L 29.124,43.59 H 31.2 l 5.379,13.84 H 34.5 l -1.443,-3.758"
         inkscape:connector-curvature="0" />
      <polyline
         id="polyline835"
         points="47.65,55.85 47.65,57.43 38.554,57.43 38.554,43.59 40.432,43.59 40.432,55.85 47.65,55.85 " />
      <polyline
         id="polyline837"
         points="64.852,43.59 59.965,57.43 57.892,57.43 52.888,43.59 54.965,43.59 58.977,55.057 62.873,43.59 64.852,43.59 " />
      <rect
         id="rect839"
         height="13.84"
         width="1.8789999"
         y="43.59"
         x="66.926003" />
      <path
         id="path841"
         d="m 81.754,53.654 c 0,2.59 -2.034,3.973 -5.002,3.973 -2.687,0 -4.785,-1.127 -5.082,-3.955 h 1.879 c 0.277,1.822 1.602,2.375 3.145,2.375 1.779,0 2.985,-0.753 2.985,-2.137 0,-3.499 -7.611,-1.682 -7.611,-6.585 0,-2.608 2.174,-3.935 4.728,-3.935 2.626,0 4.467,1.403 4.763,3.758 H 79.68 c -0.296,-1.306 -1.206,-2.176 -2.847,-2.176 -1.682,0 -2.787,0.909 -2.787,2.176 -0.001,3.323 7.708,1.483 7.708,6.506"
         inkscape:connector-curvature="0" />
      <rect
         id="rect843"
         height="13.84"
         width="1.881"
         y="43.59"
         x="84.622002" />
      <path
         id="path845"
         d="m 100.046,50.508 c 0,-3.439 -1.8,-5.535 -4.35,-5.535 -2.554,0 -4.351,2.096 -4.351,5.535 0,3.441 1.797,5.537 4.351,5.537 2.551,0 4.35,-2.096 4.35,-5.537 z m 2.077,0 c 0,4.35 -2.593,7.117 -6.426,7.117 -3.837,0 -6.428,-2.768 -6.428,-7.117 0,-4.349 2.591,-7.115 6.428,-7.115 3.833,0 6.426,2.766 6.426,7.115"
         inkscape:connector-curvature="0" />
      <polyline
         id="polyline847"
         points="116.654,43.59 116.654,57.43 115.171,57.43 106.667,47.109 106.667,57.43 104.791,57.43 104.791,43.59   106.275,43.59 114.776,53.91 114.776,43.59 116.654,43.59 " />
      <polyline
         id="polyline849"
         points="119.721,55.452 121.697,55.452 120.314,60 118.93,60 119.721,55.452 " />
      <path
         id="path851"
         d="m 138.403,53.654 c 0,2.59 -2.035,3.973 -5.003,3.973 -2.688,0 -4.785,-1.127 -5.079,-3.955 h 1.878 c 0.276,1.822 1.603,2.375 3.144,2.375 1.78,0 2.984,-0.753 2.984,-2.137 0,-3.499 -7.611,-1.682 -7.611,-6.585 0,-2.608 2.174,-3.935 4.727,-3.935 2.629,0 4.467,1.403 4.764,3.758 h -1.879 c -0.296,-1.306 -1.204,-2.176 -2.845,-2.176 -1.681,0 -2.79,0.909 -2.79,2.176 -0.001,3.323 7.71,1.483 7.71,6.506"
         inkscape:connector-curvature="0" />
      <path
         id="path853"
         d="m 151.256,50.508 c 0,-3.439 -1.801,-5.535 -4.352,-5.535 -2.549,0 -4.35,2.096 -4.35,5.535 0,3.441 1.801,5.537 4.35,5.537 2.551,0 4.352,-2.096 4.352,-5.537 z m 2.078,0 c 0,4.35 -2.592,7.117 -6.43,7.117 -3.834,0 -6.426,-2.768 -6.426,-7.117 0,-4.349 2.592,-7.115 6.426,-7.115 3.838,0 6.43,2.766 6.43,7.115"
         inkscape:connector-curvature="0" />
      <polyline
         id="polyline855"
         points="165.096,55.85 165.096,57.43 156.002,57.43 156.002,43.59 157.879,43.59 157.879,55.85 165.096,55.85 " />
      <rect
         id="rect857"
         height="13.84"
         width="1.8789999"
         y="43.59"
         x="167.271" />
      <path
         id="path859"
         d="m 182,50.508 c 0,-3.439 -1.996,-5.337 -4.744,-5.337 h -2.668 v 10.677 h 2.668 c 2.748,0 4.744,-1.899 4.744,-5.34 z m 2.078,0 c 0,4.35 -2.787,6.922 -6.623,6.922 h -4.746 V 43.59 h 4.746 c 3.836,0 6.623,2.569 6.623,6.918"
         inkscape:connector-curvature="0" />
      <path
         id="path861"
         d="m 202.564,50.312 v 7.115 h -1.484 l -0.117,-1.641 c -0.83,1.268 -2.254,1.837 -3.916,1.837 -3.678,0 -6.244,-2.769 -6.244,-7.117 0,-4.348 2.59,-7.116 6.424,-7.116 2.826,0 4.824,1.483 5.438,4.35 h -1.881 c -0.591,-1.977 -1.955,-2.768 -3.558,-2.768 -2.553,0 -4.35,2.096 -4.35,5.534 0,3.441 1.779,5.537 4.369,5.537 1.957,0 3.656,-1.188 3.637,-4.351 h -3.062 v -1.383 h 4.744"
         inkscape:connector-curvature="0" />
      <path
         id="path863"
         d="m 210.375,50.113 c 2.055,0 3.361,-0.652 3.361,-2.471 0,-1.817 -1.307,-2.473 -3.361,-2.473 H 208 v 4.941 h 2.375 z m 6.523,7.317 h -2.174 l -2.632,-4.15 c -0.811,-1.266 -1.362,-1.581 -3.161,-1.581 H 208 v 5.731 h -1.875 V 43.59 h 4.645 c 2.629,0 4.943,1.244 4.943,4.053 0,2.019 -1.402,3.146 -3.184,3.599 0.533,0.336 0.949,0.812 1.363,1.444 l 3.006,4.744"
         inkscape:connector-curvature="0" />
      <path
         id="path865"
         d="m 228.465,50.508 c 0,-3.439 -1.801,-5.535 -4.346,-5.535 -2.553,0 -4.354,2.096 -4.354,5.535 0,3.441 1.801,5.537 4.354,5.537 2.545,0 4.346,-2.096 4.346,-5.537 z m 2.078,0 c 0,4.35 -2.59,7.117 -6.424,7.117 -3.838,0 -6.428,-2.768 -6.428,-7.117 0,-4.349 2.59,-7.115 6.428,-7.115 3.834,0 6.424,2.766 6.424,7.115"
         inkscape:connector-curvature="0" />
      <path
         id="path867"
         d="m 244.283,43.59 v 8.502 c 0,3.124 -1.977,5.535 -5.535,5.535 -3.557,0 -5.535,-2.411 -5.535,-5.535 V 43.59 h 1.879 v 8.303 c 0,2.354 1.186,4.154 3.656,4.154 2.47,0 3.658,-1.801 3.658,-4.154 V 43.59 h 1.877"
         inkscape:connector-curvature="0" />
      <polyline
         id="polyline869"
         points="259.508,43.59 259.508,57.43 258.025,57.43 249.525,47.109 249.525,57.43 247.646,57.43 247.646,43.59   249.129,43.59 257.629,53.91 257.629,43.59 259.508,43.59 " />
      <path
         id="path871"
         d="m 272.264,50.508 c 0,-3.439 -1.998,-5.337 -4.746,-5.337 h -2.67 v 10.677 h 2.67 c 2.748,0 4.746,-1.899 4.746,-5.34 z m 2.074,0 c 0,4.35 -2.787,6.922 -6.625,6.922 h -4.744 V 43.59 h 4.744 c 3.838,0 6.625,2.569 6.625,6.918"
         inkscape:connector-curvature="0" />
      <path
         id="path873"
         d="m 275.326,56.439 c 0,-0.631 0.555,-1.185 1.189,-1.185 0.651,0 1.184,0.554 1.184,1.185 0,0.653 -0.531,1.188 -1.184,1.188 -0.634,0 -1.189,-0.533 -1.189,-1.188"
         inkscape:connector-curvature="0" />
      <g
         id="g881">
	<path
   id="path875"
   d="m 244.003,28.045 c 0.68,0 1.015,-0.323 1.015,-0.961 V 2.951 c 0,-0.631 -0.335,-0.954 -1.015,-0.954 V 1.039 h 9.153 v 0.958 c -0.288,0 -0.431,0.175 -0.431,0.53 0,0.285 0.359,0.78 1.069,1.487 l 15.362,15.844 V 2.951 c 0,-0.631 -0.466,-0.954 -1.395,-0.954 V 1.039 h 8.08 v 0.958 c -0.673,0 -1.013,0.323 -1.013,0.954 v 24.132 c 0,0.639 0.34,0.961 1.013,0.961 V 29 h -8.666 v -0.956 c 0.46,0 0.697,-0.163 0.697,-0.48 0,-0.246 -0.286,-0.654 -0.858,-1.22 L 250.694,9.436 v 17.647 c 0,0.639 0.402,0.961 1.225,0.961 V 29 H 244 l 0.003,-0.955"
   inkscape:connector-curvature="0" />

	<path
   id="path877"
   d="m 286.53,1.65 h -1.905 v 5.032 h -0.772 V 1.65 h -1.907 V 1 h 2.68 1.905 v 0.65 z"
   inkscape:connector-curvature="0" />

	<path
   id="path879"
   d="m 293.31,1 v 5.683 h -0.77 V 2.825 l -1.948,3.32 h -0.325 l -1.946,-3.32 V 6.682 H 287.55 V 1 h 0.65 L 290.43,4.929 292.663,1 Z"
   inkscape:connector-curvature="0" />

</g>
    </g>
  </g>
</svg>
